# xmcd
#
# Track frame offsets:
#	150
#	19981
#	33603
#	47137
#	74135
#	94544
#	123111
#	152019
#	175952
#	226013
#	250246
#
# Disc length: 3650 seconds
#
# Revision: 1
# Processed by: cddbd v1.5.2PL0 Copyright (c) Steve Scherf et al.
# Submitted via: EasyCDDAExtractor 10.2.0.1
#
DISCID=8d0e400b
DTITLE=Eric Clapton - Crossroads 2: Live in the Seventies [CD4)
DYEAR=1996
DGENRE=Blues
TTITLE0=Loving You Is Sweeter That Ever
TTITLE1=Cryin'
TTITLE2=Water On The Ground
TTITLE3=Worried Life Blues
TTITLE4=Tulsa Time
TTITLE5=Early In The Morning
TTITLE6=Wonderful Tonight
TTITLE7=Kind Hearted Woman
TTITLE8=Double Trouble
TTITLE9=Crossroads
TTITLE10=To Make Somebody Happy
EXTD=
EXTT0=
EXTT1=
EXTT2=
EXTT3=
EXTT4=
EXTT5=
EXTT6=
EXTT7=
EXTT8=
EXTT9=
EXTT10=
PLAYORDER=
